<?xml version="1.0" encoding="UTF-8" standalone="no"?>
<svg
   xmlns:dc="http://purl.org/dc/elements/1.1/"
   xmlns:cc="http://creativecommons.org/ns#"
   xmlns:rdf="http://www.w3.org/1999/02/22-rdf-syntax-ns#"
   xmlns:svg="http://www.w3.org/2000/svg"
   xmlns="http://www.w3.org/2000/svg"
   xmlns:sodipodi="http://sodipodi.sourceforge.net/DTD/sodipodi-0.dtd"
   xmlns:inkscape="http://www.inkscape.org/namespaces/inkscape"
   width="32"
   height="32"
   id="svg3252"
   sodipodi:version="0.32"
   inkscape:version="1.0.1 (3bc2e813f5, 2020-09-07)"
   sodipodi:docname="pointinghand.svg"
   inkscape:output_extension="org.inkscape.output.svg.inkscape"
   version="1.1"
   inkscape:export-filename="C:\Users\marcelo\Documents\GitHub\nodeJS-NPS_Survey\html\img\pointinghandSubmit.png"
   inkscape:export-xdpi="96"
   inkscape:export-ydpi="96">
  <defs
     id="defs3254">
    <inkscape:perspective
       sodipodi:type="inkscape:persp3d"
       inkscape:vp_x="0 : -494.18109 : 1"
       inkscape:vp_y="0 : 1000 : 0"
       inkscape:vp_z="744.09448 : -494.18109 : 1"
       inkscape:persp3d-origin="372.04724 : -669.57479 : 1"
       id="perspective3260" />
    <inkscape:perspective
       id="perspective3416"
       inkscape:persp3d-origin="372.04724 : -669.57479 : 1"
       inkscape:vp_z="744.09448 : -494.18109 : 1"
       inkscape:vp_y="0 : 1000 : 0"
       inkscape:vp_x="0 : -494.18109 : 1"
       sodipodi:type="inkscape:persp3d" />
    <filter
       inkscape:collect="always"
       id="filter5076"
       x="-0.11195591"
       width="1.2239118"
       y="-0.084372334"
       height="1.1687447">
      <feGaussianBlur
         inkscape:collect="always"
         stdDeviation="12.537448"
         id="feGaussianBlur5078" />
    </filter>
  </defs>
  <sodipodi:namedview
     id="base"
     pagecolor="#ffffff"
     bordercolor="#666666"
     borderopacity="1.0"
     gridtolerance="10000"
     guidetolerance="10"
     objecttolerance="10"
     inkscape:pageopacity="0.0"
     inkscape:pageshadow="2"
     inkscape:zoom="17.59375"
     inkscape:cx="16"
     inkscape:cy="16"
     inkscape:document-units="px"
     inkscape:current-layer="layer1"
     showgrid="false"
     inkscape:window-width="1600"
     inkscape:window-height="837"
     inkscape:window-x="-8"
     inkscape:window-y="-8"
     inkscape:document-rotation="0"
     inkscape:window-maximized="1">
    <inkscape:grid
       type="xygrid"
       id="grid4000" />
  </sodipodi:namedview>
  <metadata
     id="metadata3257">
    <rdf:RDF>
      <cc:Work
         rdf:about="">
        <dc:format>image/svg+xml</dc:format>
        <dc:type
           rdf:resource="http://purl.org/dc/dcmitype/StillImage" />
        <dc:title />
      </cc:Work>
    </rdf:RDF>
  </metadata>
  <g
     inkscape:label="Layer 1"
     inkscape:groupmode="layer"
     id="layer1">
    <g
       id="g850"
       transform="matrix(0.39997694,0,0,0.39997694,3.2007392,9.2226791e-4)"
       style="opacity:1;mix-blend-mode:normal">
      <g
         id="g5080"
         transform="matrix(0.19456132,0,0,0.19194424,-250.51228,-35.542106)"
         inkscape:export-filename="C:\Documents and Settings\bogdan\Desktop\crHand.png"
         inkscape:export-xdpi="90.262146"
         inkscape:export-ydpi="90.262146">
        <path
           style="fill:#000000;fill-opacity:1;stroke:none;stroke-width:4;stroke-miterlimit:4;stroke-dasharray:none;stroke-opacity:1;filter:url(#filter5076)"
           d="m 1404.6487,215.24677 v 15.28424 h -14.4328 v 142.58911 h -14.4971 v -15.28423 h -42.3297 -15.7243 v 51.96637 h 10.5905 v 19.51924 l 15.4014,0.0318 v 35.53585 h 15.5305 v 31.84213 h 15.5306 v 29.32663 h 15.4659 v 45.75715 h 16.5314 133.2528 v 0.0637 h 16.5638 v -40.82164 h 15.4981 v -45.85271 h 14.4004 V 361.91167 h -14.4004 V 345.1627 h -15.4981 V 332.36218 H 1540 1525.5351 v -15.28423 h -32.0298 -15.5306 v -15.28424 h -25.7659 v -71.86769 h -14.4973 v -14.67925 z"
           id="path4649"
           sodipodi:nodetypes="ccccccccccccccccccccccccccccccccccccccccccc" />
        <g
           transform="translate(-6,-14)"
           id="g4731">
          <path
             sodipodi:nodetypes="ccccccccccccccccccccccccccccccccccccccccccc"
             id="path4403"
             d="m 1403.1624,215.57275 v 15.63321 h -14.8343 v 145.84476 h -14.9004 v -15.63321 h -43.5071 -16.1616 v 53.15288 h 10.885 v 19.96491 l 15.8299,0.0326 v 36.34722 h 15.9624 v 32.56915 h 15.9626 v 29.99623 h 15.896 v 46.80189 h 16.9914 136.9591 v 0.0651 h 17.0245 V 538.5938 h 15.9293 V 491.69417 H 1590 V 365.58635 h -14.8008 v -17.13138 h -15.9293 v -13.09279 h -16.9914 -14.8674 v -15.6332 h -32.9206 -15.9627 v -15.63322 h -26.4824 v -73.5086 h -14.9006 v -15.01441 z"
             style="fill:#000000;fill-opacity:1;stroke:none;stroke-width:4;stroke-miterlimit:4;stroke-dasharray:none;stroke-opacity:1" />
          <path
             style="fill:#ffffff;fill-opacity:1;stroke:none;stroke-width:4;stroke-miterlimit:4;stroke-dasharray:none;stroke-opacity:1"
             d="m 1403.6189,219.77305 v 15.28424 h -14.4328 v 142.58912 h -14.4971 v -15.28423 h -42.3297 -15.7243 v 51.96637 h 10.5905 v 19.51924 l 15.4014,0.0318 v 35.53585 h 15.5305 v 31.84213 h 15.5306 v 29.32663 h 15.4659 v 45.75715 h 16.5314 133.2528 v 0.0637 h 16.5638 V 535.58343 H 1571 v -45.85271 h 14.4004 V 366.43796 H 1571 v -16.74897 h -15.4981 v -12.80052 h -16.5317 -14.4649 v -15.28423 h -32.0298 -15.5306 V 306.32 h -25.7659 v -71.8677 h -14.4973 v -14.67925 z"
             id="path4323"
             sodipodi:nodetypes="ccccccccccccccccccccccccccccccccccccccccccc" />
          <path
             style="fill:#000000;fill-opacity:1;stroke:none;stroke-width:4;stroke-miterlimit:4;stroke-dasharray:none;stroke-opacity:1"
             d="m 1405.4564,224.42468 v 15 h -13.9724 v 139.9375 h -14.0348 v -15 h -40.9792 -15.2226 v 51 H 1331.5 v 19.15625 l 14.9101,0.0312 v 34.875 h 15.0351 v 31.25 h 15.035 v 28.78125 h 14.9726 v 44.90625 h 16.0041 129.0017 v 0.0625 h 16.0353 v -40.0625 h 15.0038 v -45 h 13.9411 v -121 h -13.9411 v -16.4375 h -15.0038 v -12.5625 h -16.0041 -14.0036 v -15 h -31.0079 -15.035 v -15 h -24.944 v -70.53125 h -14.0348 v -14.40625 z m 0.7502,15.34375 h 30.2577 v 144.65625 h 15.035 v -60 h 24.944 v 60.8125 h 15.035 v -44.875 h 30.0077 v 59.15625 h 15.0038 v -45.15625 h 15.0038 v 15 h 14.7538 v 115 h -14.7538 v 45 h -15.035 v 30.0625 h -129.0017 v -35 h -15.0038 v -30.03125 h -15.0039 v -30.03125 h -15.0038 v -34.90625 h -15.0038 v -15 l -10.9716,-0.0312 v -34.0625 h 40.0102 v 16.90625 h 15.0038 v 42.15625 h 14.7226 z"
             id="rect4229" />
        </g>
      </g>
      <path
         style="fill:#fff300;stroke-width:0.252538"
         d="M 22.203064,65.805971 V 62.396706 H 20.687835 19.172606 V 59.492518 56.58833 h -1.380689 -1.380688 l -0.07141,-2.841054 -0.0714,-2.841054 -1.452094,-0.07574 -1.452095,-0.07574 V 47.48435 44.213956 h -1.376357 -1.376357 l -0.07574,-1.452094 -0.07574,-1.452094 -1.0732872,-0.07766 -1.073287,-0.07766 V 38.012256 34.87005 h 3.9143412 3.914341 v 1.641498 1.641498 h 1.382547 1.382547 l 0.06955,3.977476 0.06955,3.977475 1.452095,0.07574 1.452094,0.07574 V 27.053971 7.8484704 h 2.904188 2.904189 V 21.738068 35.627665 h 1.515229 1.515228 v -5.808377 -5.808377 h 2.399113 2.399112 v 5.808377 5.808377 h 1.515229 1.515228 v -4.301419 -4.301419 l 2.841054,0.07141 2.841054,0.0714 0.06797,5.618974 0.06797,5.618973 h 1.384129 1.384129 v -4.293148 -4.293148 h 1.515229 1.515228 v 1.388959 1.38896 h 1.38896 1.38896 v 11.111678 11.111678 h -1.38896 -1.38896 v 4.293148 4.293148 h -1.515228 -1.515229 v 2.904189 2.904188 H 34.703701 22.203064 Z"
         id="path841" />
    </g>
  </g>
</svg>
